<svg width="264" height="50" viewBox="0 0 264 50" fill="none" xmlns="http://www.w3.org/2000/svg">
<path d="M247.015 12.9394C249.958 12.9394 252.076 13.8821 253.37 15.7676H253.674V0.0898438H263.416V49.2532H253.674V46.9836H253.37C252.076 48.8691 249.958 49.8119 247.015 49.8119C245.087 49.8119 243.374 49.0903 241.877 47.647C240.406 46.1805 239.328 44.1437 238.643 41.5365C238.11 39.4415 237.844 36.0545 237.844 31.3756C237.844 26.6967 238.11 23.3098 238.643 21.2147C239.328 18.6076 240.406 16.5824 241.877 15.1391C243.374 13.6726 245.087 12.9394 247.015 12.9394ZM252.304 22.4019C251.848 21.6803 251.289 21.3195 250.63 21.3195C249.97 21.3195 249.412 21.6803 248.955 22.4019C248.499 23.1003 248.169 23.9848 247.966 25.0556C247.712 26.3126 247.586 28.4193 247.586 31.3756C247.586 34.3319 247.712 36.4386 247.966 37.6956C248.169 38.7664 248.499 39.6626 248.955 40.3842C249.412 41.0826 249.97 41.4318 250.63 41.4318C251.289 41.4318 251.848 41.0826 252.304 40.3842C252.761 39.6626 253.091 38.7664 253.294 37.6956C253.547 36.4386 253.674 34.3319 253.674 31.3756C253.674 28.4193 253.547 26.3126 253.294 25.0556C253.091 23.9848 252.761 23.1003 252.304 22.4019Z" fill="black"/>
<path d="M209.818 49.2529V26.3473H200.457V17.9671H219.56V49.2529H209.818ZM207.383 2.07984C208.651 0.915937 210.275 0.333984 212.254 0.333984C214.233 0.333984 215.843 0.915937 217.087 2.07984C218.355 3.22047 218.989 4.69863 218.989 6.51432C218.989 8.33001 218.355 9.81981 217.087 10.9837C215.843 12.1243 214.233 12.6947 212.254 12.6947C210.275 12.6947 208.651 12.1243 207.383 10.9837C206.14 9.81981 205.518 8.33001 205.518 6.51432C205.518 4.69863 206.14 3.22047 207.383 2.07984Z" fill="#BFA4DE"/>
<path d="M178.138 22.7165H190.315V31.0966H178.138V42.2701H168.396V31.0966H156.219V22.7165H168.396V11.543H178.138V22.7165Z" fill="black"/>
<path d="M127.925 14.4409C129.802 13.4399 131.92 12.9395 134.28 12.9395C136.639 12.9395 138.745 13.4399 140.597 14.4409C142.474 15.4186 144.009 16.7803 145.201 18.5262C146.191 20.016 146.85 21.7851 147.18 23.8336C147.51 25.8588 147.675 28.3728 147.675 31.3757C147.675 34.3786 147.51 36.9043 147.18 38.9527C146.85 40.9779 146.191 42.7354 145.201 44.2252C144.009 45.9711 142.474 47.3445 140.597 48.3455C138.745 49.3231 136.639 49.812 134.28 49.812C131.92 49.812 129.802 49.3231 127.925 48.3455C126.073 47.3445 124.551 45.9711 123.358 44.2252C122.369 42.7354 121.709 40.9779 121.379 38.9527C121.05 36.9043 120.885 34.3786 120.885 31.3757C120.885 28.3728 121.05 25.8588 121.379 23.8336C121.709 21.7851 122.369 20.016 123.358 18.5262C124.551 16.7803 126.073 15.4186 127.925 14.4409ZM137.172 23.7289C136.538 22.1227 135.574 21.3196 134.28 21.3196C132.986 21.3196 132.022 22.1227 131.388 23.7289C130.88 25.0092 130.627 27.5581 130.627 31.3757C130.627 35.1933 130.88 37.7423 131.388 39.0226C132.022 40.6288 132.986 41.4319 134.28 41.4319C135.574 41.4319 136.538 40.6288 137.172 39.0226C137.679 37.7423 137.933 35.1933 137.933 31.3757C137.933 27.5581 137.679 25.0092 137.172 23.7289Z" fill="black"/>
<path d="M98.9096 12.9395C101.624 12.9395 103.819 14.1848 105.493 16.6756C106.102 17.6067 106.558 18.6775 106.863 19.888C107.193 21.0984 107.37 22.111 107.396 22.9258C107.446 23.7172 107.472 24.8462 107.472 26.3127V49.2533H97.7299V26.3127C97.7299 24.4272 97.5396 23.1585 97.1591 22.5068C96.6771 21.7153 96.0555 21.3196 95.2944 21.3196C94.5334 21.3196 93.9118 21.7153 93.4298 22.5068C93.0493 23.1585 92.859 24.4272 92.859 26.3127V49.2533H83.1172V13.4981H92.859V15.663H93.1254C93.8357 14.825 94.7109 14.1616 95.7511 13.6727C96.7912 13.1839 97.844 12.9395 98.9096 12.9395Z" fill="black"/>
<path d="M49.954 14.4409C51.8314 13.4399 53.9497 12.9395 56.309 12.9395C58.6684 12.9395 60.774 13.4399 62.626 14.4409C64.5033 15.4186 66.0382 16.7803 67.2305 18.5262C68.2199 20.016 68.8795 21.7851 69.2093 23.8336C69.5391 25.8588 69.704 28.3728 69.704 31.3757C69.704 34.3786 69.5391 36.9043 69.2093 38.9527C68.8795 40.9779 68.2199 42.7354 67.2305 44.2252C66.0382 45.9711 64.5033 47.3445 62.626 48.3455C60.774 49.3231 58.6684 49.812 56.309 49.812C53.9497 49.812 51.8314 49.3231 49.954 48.3455C48.1021 47.3445 46.5799 45.9711 45.3876 44.2252C44.3982 42.7354 43.7386 40.9779 43.4088 38.9527C43.079 36.9043 42.9141 34.3786 42.9141 31.3757C42.9141 28.3728 43.079 25.8588 43.4088 23.8336C43.7386 21.7851 44.3982 20.016 45.3876 18.5262C46.5799 16.7803 48.1021 15.4186 49.954 14.4409ZM59.2011 23.7289C58.5669 22.1227 57.6029 21.3196 56.309 21.3196C55.0152 21.3196 54.0512 22.1227 53.4169 23.7289C52.9096 25.0092 52.6559 27.5581 52.6559 31.3757C52.6559 35.1933 52.9096 37.7423 53.4169 39.0226C54.0512 40.6288 55.0152 41.4319 56.309 41.4319C57.6029 41.4319 58.5669 40.6288 59.2011 39.0226C59.7085 37.7423 59.9622 35.1933 59.9622 31.3757C59.9622 27.5581 59.7085 25.0092 59.2011 23.7289Z" fill="black"/>
<path d="M14.8861 12.9395C16.7635 12.9395 18.1968 13.8473 19.1862 15.663C21.0128 13.8473 23.2073 12.9395 25.7696 12.9395C28.5602 12.9395 30.7673 13.9404 32.3909 15.9423C32.9998 16.7105 33.4565 17.5602 33.7609 18.4913C34.0653 19.4224 34.2429 20.2255 34.2936 20.9006C34.3444 21.5524 34.3698 22.5068 34.3698 23.7638V49.2533H24.6279V23.7638C24.6279 22.7861 24.4377 22.1459 24.0571 21.8433C23.6259 21.4942 23.0043 21.3196 22.1925 21.3196C21.3807 21.3196 20.7591 21.4942 20.3279 21.8433C19.9473 22.1459 19.757 22.7861 19.757 23.7638V49.2533H14.8861V23.7638C14.8861 22.7861 14.6959 22.1459 14.3153 21.8433C13.8841 21.4942 13.2625 21.3196 12.4507 21.3196C11.6389 21.3196 11.0173 21.4942 10.586 21.8433C10.2055 22.1459 10.0152 22.7861 10.0152 23.7638V49.2533H0.273438V13.4981H10.0152V14.7202H10.2436C11.5374 13.533 13.0849 12.9395 14.8861 12.9395Z" fill="black"/>
</svg>
