<svg width="1160" height="639" viewBox="0 0 1160 639" fill="none" xmlns="http://www.w3.org/2000/svg">
<path d="M858 158.541C896.963 158.541 927.435 126.31 927.435 88C927.435 49.6896 896.963 17.4589 858 17.4589C819.037 17.4589 788.565 49.6896 788.565 88C788.565 126.31 819.037 158.541 858 158.541ZM934.5 88C934.5 131.39 900.214 166.5 858 166.5C815.786 166.5 781.5 131.39 781.5 88C781.5 44.6096 815.786 9.5 858 9.5C900.214 9.5 934.5 44.6096 934.5 88Z" fill="black" stroke="black" stroke-width="3"/>
<path fill-rule="evenodd" clip-rule="evenodd" d="M707.959 168H761V246.964H751.202V178.72H717.757V421H664V410.28H707.959V168Z" fill="black" stroke="black" stroke-width="3"/>
<path d="M874.527 250.076C887.51 250.076 896.965 255.391 902.892 266.021C905.19 270.058 906.742 274.633 907.548 279.746C908.355 284.859 908.758 290.757 908.758 297.44C908.758 304.123 908.355 310.021 907.548 315.135C906.742 320.248 905.19 324.823 902.892 328.859C896.965 339.489 887.51 344.804 874.527 344.804H853.602V250.076H874.527ZM889.828 320.046C892.126 315.74 893.275 308.205 893.275 297.44C893.275 286.676 892.126 279.141 889.828 274.835C886.804 269.094 882.127 266.223 875.797 266.223H869.084V328.658H875.797C882.127 328.658 886.804 325.787 889.828 320.046Z" fill="white"/>
<path d="M779.998 250.076V266.223H764.516V328.658H779.998V344.804H733.551V328.658H749.033V266.223H733.551V250.076H779.998Z" fill="white"/>
<path d="M621.183 280.083C620.578 283.761 620.275 289.547 620.275 297.441C620.275 305.335 620.578 311.121 621.183 314.798C621.908 319.149 623.239 322.737 625.174 325.563C627.15 328.344 629.71 329.734 632.855 329.734C636 329.734 638.54 328.344 640.475 325.563C642.451 322.737 643.802 319.149 644.527 314.798C645.132 311.076 645.434 305.29 645.434 297.441C645.434 289.547 645.132 283.761 644.527 280.083C643.802 275.732 642.451 272.166 640.475 269.385C638.54 266.56 636 265.147 632.855 265.147C629.71 265.147 627.15 266.56 625.174 269.385C623.239 272.166 621.908 275.732 621.183 280.083ZM606.486 320.921C605.357 315.942 604.793 308.115 604.793 297.441C604.793 286.766 605.357 278.939 606.486 273.96C608.099 266.694 611.143 260.729 615.619 256.064C620.094 251.355 625.839 249 632.855 249C639.87 249 645.616 251.355 650.091 256.064C654.567 260.729 657.611 266.694 659.224 273.96C660.352 278.939 660.917 286.766 660.917 297.441C660.917 308.115 660.352 315.942 659.224 320.921C657.611 328.187 654.567 334.175 650.091 338.884C645.616 343.549 639.87 345.881 632.855 345.881C625.839 345.881 620.094 343.549 615.619 338.884C611.143 334.175 608.099 328.187 606.486 320.921Z" fill="white"/>
<path d="M501.193 344.804H485.711V250.076H501.133L516.071 303.764H516.676V250.076H532.158V344.804H516.676L501.798 291.116H501.193V344.804Z" fill="white"/>
<path d="M373.343 280.083C372.738 283.761 372.436 289.547 372.436 297.441C372.436 305.335 372.738 311.121 373.343 314.798C374.068 319.149 375.399 322.737 377.334 325.563C379.31 328.344 381.87 329.734 385.015 329.734C388.16 329.734 390.7 328.344 392.635 325.563C394.611 322.737 395.962 319.149 396.687 314.798C397.292 311.076 397.595 305.29 397.595 297.441C397.595 289.547 397.292 283.761 396.687 280.083C395.962 275.732 394.611 272.166 392.635 269.385C390.7 266.56 388.16 265.147 385.015 265.147C381.87 265.147 379.31 266.56 377.334 269.385C375.399 272.166 374.068 275.732 373.343 280.083ZM358.647 320.921C357.518 315.942 356.953 308.115 356.953 297.441C356.953 286.766 357.518 278.939 358.647 273.96C360.259 266.694 363.303 260.729 367.779 256.064C372.254 251.355 378 249 385.015 249C392.031 249 397.776 251.355 402.251 256.064C406.727 260.729 409.771 266.694 411.384 273.96C412.513 278.939 413.077 286.766 413.077 297.441C413.077 308.115 412.513 315.942 411.384 320.921C409.771 328.187 406.727 334.175 402.251 338.884C397.776 343.549 392.031 345.881 385.015 345.881C378 345.881 372.254 343.549 367.779 338.884C363.303 334.175 360.259 328.187 358.647 320.921Z" fill="white"/>
<path d="M249.482 344.804H234V250.076H249.482L260.792 279.544H261.457L272.706 250.076H288.189V344.804H272.706V284.523H272.101L264.421 301.746H257.768L250.087 284.254H249.482V344.804Z" fill="white"/>
<path fill-rule="evenodd" clip-rule="evenodd" d="M889.629 319.848C891.927 315.542 893.076 308.007 893.076 297.242C893.076 286.478 891.927 278.942 889.629 274.637C886.692 269.061 882.196 266.193 876.142 266.032C875.962 266.027 875.78 266.025 875.598 266.025H868.884V328.46H875.598C875.78 328.46 875.962 328.457 876.142 328.452C882.196 328.291 886.692 325.423 889.629 319.848ZM876.142 320.376C879.741 320.239 881.812 318.718 883.367 315.766L883.377 315.746L883.388 315.726C884.603 313.45 885.818 307.872 885.818 297.242C885.818 286.613 884.603 281.034 883.388 278.758L883.377 278.738L883.367 278.718C881.812 275.767 879.741 274.245 876.142 274.109V320.376ZM846.145 352.68V241.805H874.327C889.353 241.805 901.368 248.152 908.844 261.54C911.68 266.533 913.543 272.105 914.497 278.153C915.393 283.836 915.816 290.217 915.816 297.242C915.816 304.267 915.393 310.649 914.497 316.332C913.543 322.379 911.68 327.951 908.844 332.945C901.368 346.333 889.353 352.68 874.327 352.68H846.145ZM902.692 328.661C904.99 324.625 906.542 320.05 907.349 314.937C908.155 309.823 908.558 303.925 908.558 297.242C908.558 290.559 908.155 284.661 907.349 279.548C906.542 274.435 904.99 269.86 902.692 265.823C896.765 255.193 887.31 249.878 874.327 249.878H853.402V344.606H874.327C887.31 344.606 896.765 339.291 902.692 328.661Z" fill="black"/>
<path fill-rule="evenodd" clip-rule="evenodd" d="M787.056 241.805V274.098H771.573V320.386H787.056V352.68H726.094V320.386H741.576V274.098H726.094V241.805H787.056ZM748.834 266.025V328.46H733.351V344.606H779.799V328.46H764.316V266.025H779.799V249.878H733.351V266.025H748.834Z" fill="black"/>
<path fill-rule="evenodd" clip-rule="evenodd" d="M640.276 325.365C638.34 328.146 635.8 329.536 632.655 329.536C629.51 329.536 626.95 328.146 624.975 325.365C623.039 322.539 621.709 318.951 620.983 314.6C620.378 310.923 620.076 305.137 620.076 297.243C620.076 289.349 620.378 283.563 620.983 279.885C621.709 275.534 623.039 271.968 624.975 269.187C626.95 266.362 629.51 264.949 632.655 264.949C635.8 264.949 638.34 266.362 640.276 269.187C642.251 271.968 643.602 275.534 644.328 279.885C644.932 283.563 645.235 289.349 645.235 297.243C645.235 305.092 644.932 310.878 644.328 314.6C643.602 318.951 642.251 322.539 640.276 325.365ZM630.709 274.135C629.642 275.671 628.686 277.956 628.119 281.358C627.641 284.277 627.333 289.441 627.333 297.243C627.333 305.044 627.641 310.208 628.119 313.127C628.68 316.491 629.625 318.81 630.706 320.411C631.308 321.241 631.782 321.463 632.655 321.463C633.541 321.463 633.968 321.241 634.537 320.423L634.547 320.408C635.659 318.817 636.626 316.511 637.189 313.144C637.671 310.166 637.977 304.99 637.977 297.243C637.977 289.441 637.67 284.277 637.192 281.358C636.629 277.983 635.666 275.72 634.582 274.193L634.542 274.137L634.503 274.08C633.915 273.222 633.494 273.022 632.655 273.022C631.813 273.022 631.344 273.23 630.709 274.135ZM654.866 344.565L654.854 344.578C648.839 350.847 641.229 353.757 632.655 353.757C624.082 353.757 616.472 350.847 610.457 344.578L610.444 344.565L610.432 344.551C604.858 338.686 601.162 331.296 599.246 322.682C597.888 316.681 597.336 308.02 597.336 297.243C597.336 286.465 597.888 277.804 599.246 271.803C601.161 263.192 604.858 255.816 610.443 249.989C616.453 243.671 624.068 240.729 632.655 240.729C641.243 240.729 648.858 243.671 654.868 249.989C660.452 255.816 664.149 263.192 666.064 271.803C667.423 277.804 667.975 286.465 667.975 297.243C667.975 308.02 667.423 316.681 666.064 322.682C664.149 331.296 660.452 338.686 654.879 344.551L654.866 344.565ZM649.892 255.866C645.416 251.157 639.671 248.802 632.655 248.802C625.64 248.802 619.894 251.157 615.419 255.866C610.944 260.531 607.9 266.496 606.287 273.762C605.158 278.741 604.593 286.568 604.593 297.243C604.593 307.917 605.158 315.744 606.287 320.723C607.9 327.989 610.944 333.977 615.419 338.686C619.894 343.351 625.64 345.683 632.655 345.683C639.671 345.683 645.416 343.351 649.892 338.686C654.367 333.977 657.411 327.989 659.024 320.723C660.153 315.744 660.717 307.917 660.717 297.243C660.717 286.568 660.153 278.741 659.024 273.762C657.411 266.496 654.367 260.531 649.892 255.866Z" fill="black"/>
<path fill-rule="evenodd" clip-rule="evenodd" d="M508.251 352.68H478.254V241.805H506.284L509.219 252.352V241.805H539.216V352.68H511.119L508.251 342.331V352.68ZM501.599 290.918H500.994V344.606H485.511V249.878H500.933L515.871 303.566H516.476V249.878H531.959V344.606H516.476L501.599 290.918Z" fill="black"/>
<path fill-rule="evenodd" clip-rule="evenodd" d="M386.697 320.423L386.707 320.408C387.819 318.818 388.785 316.512 389.349 313.148C389.83 310.171 390.138 304.993 390.138 297.243C390.138 289.43 389.829 284.262 389.35 281.345C388.787 277.977 387.825 275.718 386.742 274.193L386.702 274.137L386.663 274.08C386.075 273.222 385.655 273.022 384.815 273.022C383.973 273.022 383.504 273.23 382.869 274.135C381.803 275.669 380.849 277.95 380.281 281.345C379.802 284.262 379.493 289.43 379.493 297.243C379.493 305.056 379.802 310.224 380.281 313.141C380.842 316.497 381.787 318.812 382.866 320.411C383.468 321.241 383.942 321.463 384.815 321.463C385.701 321.463 386.128 321.241 386.697 320.423ZM373.143 314.6C372.538 310.923 372.236 305.137 372.236 297.243C372.236 289.349 372.538 283.563 373.143 279.885C373.869 275.534 375.199 271.968 377.135 269.187C379.11 266.362 381.671 264.949 384.815 264.949C387.96 264.949 390.5 266.362 392.436 269.187C394.411 271.968 395.762 275.534 396.488 279.885C397.093 283.563 397.395 289.349 397.395 297.243C397.395 305.092 397.093 310.878 396.488 314.6C395.762 318.951 394.411 322.539 392.436 325.365C390.5 328.146 387.96 329.536 384.815 329.536C381.671 329.536 379.11 328.146 377.135 325.365C375.199 322.539 373.869 318.951 373.143 314.6ZM407.026 344.565L407.014 344.578C400.999 350.847 393.389 353.757 384.815 353.757C376.242 353.757 368.632 350.847 362.617 344.578L362.604 344.565L362.592 344.551C357.017 338.685 353.321 331.293 351.405 322.676C350.048 316.676 349.496 308.016 349.496 297.243C349.496 286.469 350.048 277.81 351.405 271.809C353.32 263.196 357.017 255.817 362.603 249.989C368.613 243.671 376.228 240.729 384.815 240.729C393.403 240.729 401.018 243.671 407.028 249.989C412.614 255.817 416.311 263.196 418.226 271.809C419.583 277.809 420.135 286.469 420.135 297.243C420.135 308.016 419.583 316.676 418.226 322.676C416.31 331.293 412.614 338.685 407.039 344.551L407.026 344.565ZM411.184 273.762C409.571 266.496 406.527 260.531 402.052 255.866C397.576 251.157 391.831 248.802 384.815 248.802C377.8 248.802 372.055 251.157 367.579 255.866C363.104 260.531 360.06 266.496 358.447 273.762C357.318 278.741 356.753 286.568 356.753 297.243C356.753 307.917 357.318 315.744 358.447 320.723C360.06 327.989 363.104 333.977 367.579 338.686C372.055 343.351 377.8 345.683 384.815 345.683C391.831 345.683 397.576 343.351 402.052 338.686C406.527 333.977 409.571 327.989 411.184 320.723C412.313 315.744 412.877 307.917 412.877 297.243C412.877 286.568 412.313 278.741 411.184 273.762Z" fill="black"/>
<path fill-rule="evenodd" clip-rule="evenodd" d="M256.54 352.68H226.543V241.805H254.076L260.908 259.607L267.704 241.805H295.246V352.68H265.249V309.622H256.54V352.68ZM249.888 284.056H249.283V344.606H233.8V249.878H249.283L260.592 279.346H261.258L272.507 249.878H287.989V344.606H272.507V284.325H271.902L264.221 301.548H257.568L249.888 284.056Z" fill="black"/>
<path fill-rule="evenodd" clip-rule="evenodd" d="M842.132 367L927 397.914V478.76L871.132 519L786.265 478.545L782 406.187L793 399L842.132 367ZM791.667 411.848L794.794 473.832L865.162 507.61V439.661L791.667 411.848ZM874.971 439.661V506.039L918.471 475.796L917.333 411.515L874.971 439.661ZM912.1 402.542L842.132 377.212L800.901 404.051L869.426 431.413L912.1 402.542Z" fill="black" stroke="black" stroke-width="3"/>
<path fill-rule="evenodd" clip-rule="evenodd" d="M743.292 398.825H736V388H761V398.825H753.708V482.175H761V493H736V482.175H743.292V398.825Z" fill="#BFA4DE" stroke="black" stroke-width="8"/>
<path fill-rule="evenodd" clip-rule="evenodd" d="M873.483 179.301C873.703 179.105 873.565 178.741 873.27 178.741H779.37C776.404 178.741 774 176.336 774 173.37C774 170.404 776.404 168 779.37 168H882.036C882.989 168 883.762 168.773 883.762 169.726V170.079C883.762 171.394 885.291 172.118 886.308 171.284C887.023 170.698 888.099 170.859 888.459 171.71C889.133 173.303 889.351 175.03 889.162 176.688C889.062 177.557 890.433 178.582 891.127 178.05C893.118 176.523 895.349 175.457 897.688 174.895C899.482 174.464 901.297 174.04 902.941 173.202L903.357 172.99C905.007 172.15 906.833 171.711 908.685 171.711C910.193 171.711 911.686 171.421 913.084 170.856L915.19 170.005L919.344 168.6C920.519 168.203 921.751 168 922.991 168H926.264C927.87 168 929.377 168.772 930.316 170.076L932.187 172.675C932.615 173.27 932.525 174.092 931.979 174.581L931.781 174.757C930.869 175.572 931.446 177.082 932.668 177.082C933.404 177.082 934.005 177.679 933.955 178.412C933.674 182.505 932.108 186.374 929.51 189.324L927.466 191.645C923.9 195.694 920.012 199.448 915.84 202.87L912.499 205.611L900.206 216.292L893.858 221.23C889.884 224.322 884.993 226 879.959 226C877.781 226 875.615 225.686 873.527 225.067L865.976 222.829L857.141 219.884L848.569 217.654C847.063 217.262 845.61 216.692 844.24 215.955C841.4 214.428 838.225 213.628 835 213.628H815.438C812.472 213.628 810.068 211.224 810.068 208.258C810.068 205.292 812.472 202.888 815.438 202.888H836.416C840.158 202.888 843.842 203.815 847.138 205.588C848.728 206.443 850.414 207.104 852.161 207.559L859.62 209.499L868.597 212.492L876.01 214.689C877.287 215.067 878.612 215.259 879.944 215.259C883.023 215.259 886.015 214.233 888.446 212.342L894.48 207.647L906.678 197.049L909.503 194.732C913.675 191.31 917.562 187.556 921.128 183.507L922.631 181.801C923.075 181.296 923.441 180.722 923.72 180.102C924.022 179.431 923.474 178.741 922.738 178.741C922.613 178.741 922.488 178.761 922.37 178.801L918.235 180.2L914.61 181.665C913.323 182.185 911.948 182.452 910.56 182.452H908.858C908.272 182.452 907.694 182.591 907.171 182.857L904.406 184.266C903.959 184.493 903.414 184.291 903.224 183.827C902.867 182.958 901.573 183.35 901.573 184.29C901.573 184.778 901.176 185.169 900.691 185.223C899.223 185.388 897.812 185.962 896.589 186.9C894.808 188.264 893.162 189.794 891.457 191.252C891.055 191.596 890.637 191.938 890.211 192.266C889.416 192.877 888.496 193.514 887.537 194.017C886.677 194.469 885.314 195.071 883.762 195.071H877.059C875.276 195.071 873.505 194.781 871.815 194.212L863.859 191.533C861.031 190.58 859.274 187.758 859.666 184.8C860.077 181.699 862.722 179.382 865.85 179.382H873.27C873.349 179.382 873.424 179.353 873.483 179.301Z" fill="black"/>
<path d="M881 170.5L884.5 171.5L885.925 172.07C886.625 172.35 887.224 172.836 887.642 173.463V173.463C887.879 173.818 888.053 174.212 888.157 174.626L888.5 176L888.604 176.312C888.858 177.073 889.403 177.702 890.12 178.06V178.06C890.692 178.346 891.34 178.443 891.97 178.338L894 178L894.344 177.943C896.11 177.648 897.838 177.165 899.5 176.5V176.5L901.338 175.581C903.432 174.534 905.682 173.831 908 173.5V173.5L911.5 172.5L914.383 171.419C915.126 171.14 915.894 170.934 916.677 170.804L917.642 170.643C918.211 170.548 918.762 170.369 919.278 170.111V170.111C920.082 169.709 920.968 169.5 921.866 169.5C922.716 169.5 923.569 169.5 924.22 169.5C924.738 169.5 925.254 169.564 925.757 169.689V169.689C926.578 169.894 927.356 170.267 928.032 170.774V170.774C928.667 171.25 929.216 171.845 929.636 172.518L931.048 174.777C931.349 175.258 931.606 175.765 931.817 176.292L931.996 176.74C932.329 177.572 932.5 178.46 932.5 179.357V179.357C932.5 180.114 932.378 180.866 932.138 181.585L931.5 183.5L931.393 183.75C930.473 185.897 929.151 187.849 927.5 189.5V189.5L924 193.5L920.5 196.725L917 200L908 206.5L892.5 218" stroke="black" stroke-width="5"/>
<path fill-rule="evenodd" clip-rule="evenodd" d="M481 510H505V521H481V510Z" fill="black"/>
<path fill-rule="evenodd" clip-rule="evenodd" d="M669 376V550.621H601.096H601.32H602.04H604.159H606.278L576.673 595H571.573H466V584.088L571.573 583.577L592.716 550.621L581.561 565.217C581.076 565.622 579.64 566.468 580.002 566.246C580.614 565.871 580.687 565.392 580.879 565.344C581.125 565.282 581.361 565.243 581.561 565.217L586.392 558.43L592.735 550.719L592.716 550.885L593.987 539.891H659.395V376H669ZM582.41 575.691C582.376 575.694 597.605 553.843 582.41 575.691Z" fill="black"/>
<path d="M601.32 550.621H602.04H604.159H606.278L576.673 595H571.573H466V584.088L571.573 583.577L592.716 550.621L581.561 565.217M601.32 550.621H601.096H669V376H659.395V539.891H593.987L592.716 550.885L592.735 550.719L586.392 558.43L581.561 565.217M601.32 550.621L596.342 562.587M581.561 565.217C581.076 565.622 579.64 566.468 580.002 566.246C580.614 565.871 580.687 565.392 580.879 565.344C581.125 565.282 581.361 565.243 581.561 565.217ZM581.561 565.217L575.224 571.92M582.41 575.691C597.605 553.843 582.376 575.694 582.41 575.691Z" stroke="black" stroke-width="3"/>
<path fill-rule="evenodd" clip-rule="evenodd" d="M495.481 399.25L594.317 399H599.17H601.874H604V411.026V552.181H599.17V416.393V410.038V404.841L594.222 404.835H589.545L496.862 404.841L494.311 408.067L491.317 412.01L487.934 416.74L485.383 419.894L481.623 424.625L478.581 428.962L477.731 430.038H481.623V435.291H471.883L471.614 447.661H466.83V586.264H471.671V592.792H576.212V598.634L488 598.159H471.671H462V591.63V442.294H466.899L467.168 429.924H472.523L475.499 425.664L478.85 421.471L481.982 417.228L483.683 414.769L472.523 429.924L484.108 414.375L495.481 399.25L491.317 404.841L493.355 402.01L495.481 399.25ZM481.623 598.159V598.634H569.046V598.159H481.623Z" fill="black"/>
<path d="M495.481 399.25L594.317 399H599.17H601.874H604V411.026V552.181H599.17V416.393V410.038V404.841L594.222 404.835H589.545L496.862 404.841L494.311 408.067L491.317 412.01L487.934 416.74L485.383 419.894L481.623 424.625L478.581 428.962L477.731 430.038H481.623V435.291H471.883L471.614 447.661H466.83V586.264H471.671V592.792H576.212V598.634L488 598.159H471.671H462V591.63V442.294H466.899L467.168 429.924H472.523M495.481 399.25L491.317 404.841L493.355 402.01L495.481 399.25ZM495.481 399.25L484.108 414.375L472.523 429.924M472.523 429.924L475.499 425.664L478.85 421.471L481.982 417.228L483.683 414.769L472.523 429.924ZM481.623 598.634V598.159H569.046V598.634H481.623Z" stroke="black" stroke-width="3"/>
<path fill-rule="evenodd" clip-rule="evenodd" d="M559.145 422.349H483V417H566.5H571L577.225 424.491L583.62 431.983L589.163 437.897L591.295 439.869L593 555L584.162 562V446.685H563.987H559.145V442.229V422.349ZM563.948 422.349V436.881V441.337H568.79H583.086L577.225 435.137L569.55 427.646L564.008 422.126L563.948 422.349Z" fill="black"/>
<path d="M591.295 439.869L589.163 437.897L583.62 431.983L577.225 424.491L571 417H566.5H483V422.349H559.145V442.229V446.685H563.987H584.162V562L593 555L591.295 439.869ZM591.295 439.869L586.178 437.534M564.008 422.126L569.55 427.646L577.225 435.137L583.086 441.337H568.79H563.948V436.881V422.349L564.008 422.126ZM564.008 422.126L574.5 422" stroke="black" stroke-width="3"/>
<path fill-rule="evenodd" clip-rule="evenodd" d="M472 427V429.503H476.821H546.855L552.735 436.81L557.012 442.724L562.358 449.335L566.902 455.25L575.99 467.079H579.575L580 578H575.179V472.511H538.825V434.935H472V427ZM543.647 442.241V467.079H571.169H562.358H559.591L556.189 461.39L552.191 454.767L547.914 448.156L543.647 442.241Z" fill="black" stroke="black" stroke-width="3"/>
<path fill-rule="evenodd" clip-rule="evenodd" d="M480 456H530V474H480V462.93L480 458.132L480 456Z" fill="#BFA4DE" stroke="black" stroke-width="5"/>
<path fill-rule="evenodd" clip-rule="evenodd" d="M544.834 485H565.612V490.309H549.61V517.345H565.612V522.653H549.61V529.261H568V554.317H544.834V485ZM549.61 534.57V549.008H563.225V534.57H549.61ZM483 564.872H565.612L565.601 571H483V564.872ZM487.775 564.872V565.691H560.826V564.872H487.775Z" fill="black" stroke="black" stroke-width="3"/>
<path fill-rule="evenodd" clip-rule="evenodd" d="M505 348V364.556V381.112L500.264 381.017C482.826 380.668 456.674 380.249 434.89 380.127C423.993 380.066 414.218 380.079 407.182 380.212C404.399 380.264 402.081 380.334 400.306 380.423V511.518H460.331V522H391V375.777C391 372.985 392.783 371.591 393.149 371.32C393.712 370.904 394.237 370.707 394.454 370.63C394.955 370.452 395.453 370.359 395.778 370.306C396.499 370.189 397.425 370.103 398.444 370.035C400.523 369.896 403.467 369.798 407.026 369.731C414.167 369.597 424.023 369.584 434.936 369.645C454.879 369.757 478.455 370.117 495.694 370.445V348H505Z" fill="black"/>
<path d="M397.01 380.699C397.01 380.699 397.014 380.698 397.023 380.696M505 348H495.694V370.445C478.455 370.117 454.879 369.757 434.936 369.645C424.023 369.584 414.167 369.597 407.026 369.731C403.467 369.798 400.523 369.896 398.444 370.035C397.425 370.103 396.499 370.189 395.778 370.306C395.453 370.359 394.955 370.452 394.454 370.63C394.237 370.707 393.712 370.904 393.149 371.32C392.783 371.591 391 372.985 391 375.777V522H460.331V511.518H400.306V380.423C402.081 380.334 404.399 380.264 407.182 380.212C414.218 380.079 423.993 380.066 434.89 380.127C456.674 380.249 482.826 380.668 500.264 381.017L505 381.112V364.556V348Z" stroke="black" stroke-width="3"/>
<path d="M363 432.5C363 450.449 347.778 465 329 465C310.222 465 295 450.449 295 432.5C295 414.551 310.222 400 329 400C347.778 400 363 414.551 363 432.5Z" fill="#6D92CA"/>
<path d="M329 455.667C344.858 455.667 354.923 443.69 354.923 432.5C354.923 421.31 344.858 409.333 329 409.333C313.142 409.333 303.077 421.31 303.077 432.5C303.077 443.69 313.142 455.667 329 455.667ZM361.5 432.5C361.5 449.558 347.014 463.5 329 463.5C310.986 463.5 296.5 449.558 296.5 432.5C296.5 415.442 310.986 401.5 329 401.5C347.014 401.5 361.5 415.442 361.5 432.5Z" fill="black" stroke="black" stroke-width="3"/>
<path d="M329 432.5C329 450.449 313.554 465 294.5 465C275.446 465 260 450.449 260 432.5C260 414.551 275.446 400 294.5 400C313.554 400 329 414.551 329 432.5Z" fill="#6D92CA"/>
<path d="M294.5 455.667C310.559 455.667 320.782 443.71 320.782 432.5C320.782 421.29 310.559 409.333 294.5 409.333C278.441 409.333 268.218 421.29 268.218 432.5C268.218 443.71 278.441 455.667 294.5 455.667ZM327.5 432.5C327.5 449.538 312.811 463.5 294.5 463.5C276.189 463.5 261.5 449.538 261.5 432.5C261.5 415.462 276.189 401.5 294.5 401.5C312.811 401.5 327.5 415.462 327.5 432.5Z" fill="black" stroke="black" stroke-width="3"/>
<path fill-rule="evenodd" clip-rule="evenodd" d="M363.434 378.079L120.502 375.933L120.578 365.203L363.51 367.349L363.434 378.079Z" fill="black" stroke="black" stroke-width="3"/>
<path fill-rule="evenodd" clip-rule="evenodd" d="M245 439H120V428H245V439Z" fill="black" stroke="black" stroke-width="3"/>
<path fill-rule="evenodd" clip-rule="evenodd" d="M716.462 92H746.297L762 112.211V128.784L746.375 150H712.842L699 128.601V112.039L716.462 92ZM720.629 102.545L708.692 116.244V125.262L717.873 139.455H741.721L752.308 125.08V116.071L741.799 102.545H720.629Z" fill="black" stroke="black" stroke-width="3"/>
<path fill-rule="evenodd" clip-rule="evenodd" d="M227 175H307.373V223.807H424V234.521H297.716V185.714H236.657V235H227V175Z" fill="black" stroke="black" stroke-width="3"/>
<path fill-rule="evenodd" clip-rule="evenodd" d="M371.001 192.663L495.353 21.0001L502.816 27.5469L378.464 199.209L371.001 192.663Z" fill="black" stroke="black" stroke-width="3"/>
<path fill-rule="evenodd" clip-rule="evenodd" d="M642.883 185.715L513.256 17.9998L506 24.7754L635.627 192.491L642.883 185.715Z" fill="black" stroke="black" stroke-width="3"/>
<path fill-rule="evenodd" clip-rule="evenodd" d="M231.963 7.50465L368.255 187.076L360.891 194.001L224.599 14.4296L231.963 7.50465Z" fill="black" stroke="black" stroke-width="3"/>
<path fill-rule="evenodd" clip-rule="evenodd" d="M86.67 193.531L218.177 11.3717L225.691 18.0933L94.1846 200.252L86.67 193.531Z" fill="black" stroke="black" stroke-width="3"/>
<path d="M146 308C146 348.317 105.86 372.075 73 381C35.5641 370.931 0 348.317 0 308C0 267.683 32.6832 235 73 235C113.317 235 146 267.683 146 308Z" fill="#6D92CA"/>
<path d="M72.5707 371.455L72.9854 371.573L73.3994 371.452C88.4706 367.071 104.572 359.543 116.934 348.972C129.878 337.901 137.895 324.295 137.895 308C137.895 273.762 109.811 244.157 73 244.157C36.1894 244.157 8.10526 273.762 8.10526 308C8.10526 324.649 15.3054 337.933 27.442 348.622C39.2356 359.009 55.3424 366.56 72.5707 371.455ZM144.5 308C144.5 327.601 134.759 343.235 120.848 355.132C107.03 366.95 89.175 375.001 72.9979 379.446C54.5525 374.439 36.6986 366.383 23.4529 354.717C10.148 342.999 1.5 327.656 1.5 308C1.5 268.512 33.5116 236.5 73 236.5C112.488 236.5 144.5 268.512 144.5 308Z" fill="black" stroke="black" stroke-width="3"/>
<path fill-rule="evenodd" clip-rule="evenodd" d="M57 283V371H48V283H57Z" fill="black"/>
<path fill-rule="evenodd" clip-rule="evenodd" d="M101 285V364H92V285H101Z" fill="black"/>
<path d="M109 382.5C109 387.747 92.8823 392 73 392C53.1177 392 37 387.747 37 382.5C37 377.253 53.1177 373 73 373C92.8823 373 109 377.253 109 382.5Z" fill="white"/>
<path fill-rule="evenodd" clip-rule="evenodd" d="M101.301 388.372C101.256 388.387 101.211 388.402 101.166 388.417C94.5699 390.601 84.4042 392 73 392C61.5958 392 51.4301 390.601 44.8341 388.417C44.789 388.402 44.7441 388.387 44.6993 388.372C39.877 386.756 37 384.717 37 382.5C37 380.283 39.877 378.244 44.6993 376.628C44.7441 376.613 44.789 376.598 44.8341 376.583C51.4301 374.399 61.5958 373 73 373C84.4042 373 94.5699 374.399 101.166 376.583C101.211 376.598 101.256 376.613 101.301 376.628C106.123 378.244 109 380.283 109 382.5C109 384.717 106.123 386.756 101.301 388.372Z" fill="black"/>
<path d="M109 391C109 395.971 92.8823 400 73 400C53.1177 400 37 395.971 37 391C37 386.029 53.1177 382 73 382C92.8823 382 109 386.029 109 391Z" fill="white"/>
<path fill-rule="evenodd" clip-rule="evenodd" d="M101.301 396.563C101.256 396.577 101.211 396.592 101.166 396.606C94.5699 398.674 84.4042 400 73 400C61.5958 400 51.4301 398.674 44.8341 396.606C44.789 396.592 44.7441 396.577 44.6993 396.563C39.877 395.032 37 393.1 37 391C37 388.9 39.877 386.968 44.6993 385.437C44.7441 385.423 44.789 385.408 44.8341 385.394C51.4301 383.326 61.5958 382 73 382C84.4042 382 94.5699 383.326 101.166 385.394C101.211 385.408 101.256 385.423 101.301 385.437C106.123 386.968 109 388.9 109 391C109 393.1 106.123 395.032 101.301 396.563Z" fill="black"/>
<path d="M109 401C109 405.971 92.8823 410 73 410C53.1177 410 37 405.971 37 401C37 396.029 53.1177 392 73 392C92.8823 392 109 396.029 109 401Z" fill="white"/>
<path fill-rule="evenodd" clip-rule="evenodd" d="M101.301 406.563C101.256 406.577 101.211 406.592 101.166 406.606C94.5699 408.674 84.4042 410 73 410C61.5958 410 51.4301 408.674 44.8341 406.606C44.789 406.592 44.7441 406.577 44.6993 406.563C39.877 405.032 37 403.1 37 401C37 398.9 39.877 396.968 44.6993 395.437C44.7441 395.423 44.789 395.408 44.8341 395.394C51.4301 393.326 61.5958 392 73 392C84.4042 392 94.5699 393.326 101.166 395.394C101.211 395.408 101.256 395.423 101.301 395.437C106.123 396.968 109 398.9 109 401C109 403.1 106.123 405.032 101.301 406.563Z" fill="black"/>
<path d="M109 411.5C109 416.194 92.8823 420 73 420C53.1177 420 37 416.194 37 411.5C37 406.806 53.1177 403 73 403C92.8823 403 109 406.806 109 411.5Z" fill="white"/>
<path fill-rule="evenodd" clip-rule="evenodd" d="M101.301 416.754C101.256 416.768 101.211 416.781 101.166 416.794C94.5699 418.748 84.4042 420 73 420C61.5958 420 51.4301 418.748 44.8341 416.794C44.789 416.781 44.7441 416.768 44.6993 416.754C39.877 415.308 37 413.483 37 411.5C37 409.517 39.877 407.692 44.6993 406.246C44.7441 406.232 44.789 406.219 44.8341 406.206C51.4301 404.252 61.5958 403 73 403C84.4042 403 94.5699 404.252 101.166 406.206C101.211 406.219 101.256 406.232 101.301 406.246C106.123 407.692 109 409.517 109 411.5C109 413.483 106.123 415.308 101.301 416.754Z" fill="black"/>
<path d="M109 438.5C109 443.747 92.8823 448 73 448C53.1177 448 37 443.747 37 438.5C37 433.253 53.1177 429 73 429C92.8823 429 109 433.253 109 438.5Z" fill="white"/>
<path fill-rule="evenodd" clip-rule="evenodd" d="M101.301 444.372C101.256 444.387 101.211 444.402 101.166 444.417C94.5699 446.601 84.4042 448 73 448C61.5958 448 51.4301 446.601 44.8341 444.417C44.789 444.402 44.7441 444.387 44.6993 444.372C39.877 442.756 37 440.717 37 438.5C37 436.283 39.877 434.244 44.6993 432.628C44.7441 432.613 44.789 432.598 44.8341 432.583C51.4301 430.399 61.5958 429 73 429C84.4042 429 94.5699 430.399 101.166 432.583C101.211 432.598 101.256 432.613 101.301 432.628C106.123 434.244 109 436.283 109 438.5C109 440.717 106.123 442.756 101.301 444.372Z" fill="black"/>
<path d="M109 428C109 432.971 92.8823 437 73 437C53.1177 437 37 432.971 37 428C37 423.029 53.1177 419 73 419C92.8823 419 109 423.029 109 428Z" fill="white"/>
<path fill-rule="evenodd" clip-rule="evenodd" d="M101.301 433.563C101.256 433.577 101.211 433.592 101.166 433.606C94.5699 435.674 84.4042 437 73 437C61.5958 437 51.4301 435.674 44.8341 433.606C44.789 433.592 44.7441 433.577 44.6993 433.563C39.877 432.032 37 430.1 37 428C37 425.9 39.877 423.968 44.6993 422.437C44.7441 422.423 44.789 422.408 44.8341 422.394C51.4301 420.326 61.5958 419 73 419C84.4042 419 94.5699 420.326 101.166 422.394C101.211 422.408 101.256 422.423 101.301 422.437C106.123 423.968 109 425.9 109 428C109 430.1 106.123 432.032 101.301 433.563Z" fill="black"/>
<path d="M109 419C109 423.971 92.8823 428 73 428C53.1177 428 37 423.971 37 419C37 414.029 53.1177 410 73 410C92.8823 410 109 414.029 109 419Z" fill="white"/>
<path fill-rule="evenodd" clip-rule="evenodd" d="M101.301 424.563C101.256 424.577 101.211 424.592 101.166 424.606C94.5699 426.674 84.4042 428 73 428C61.5958 428 51.4301 426.674 44.8341 424.606C44.789 424.592 44.7441 424.577 44.6993 424.563C39.877 423.032 37 421.1 37 419C37 416.9 39.877 414.968 44.6993 413.437C44.7441 413.423 44.789 413.408 44.8341 413.394C51.4301 411.326 61.5958 410 73 410C84.4042 410 94.5699 411.326 101.166 413.394C101.211 413.408 101.256 413.423 101.301 413.437C106.123 414.968 109 416.9 109 419C109 421.1 106.123 423.032 101.301 424.563Z" fill="black"/>
<path fill-rule="evenodd" clip-rule="evenodd" d="M1119 307H910V295H1119V307Z" fill="black" stroke="black" stroke-width="3"/>
<path d="M967 189H1061V277H967V189Z" fill="#6D92CA"/>
<path d="M940 119H1077V254" stroke="black" stroke-width="10"/>
<path d="M1160 301C1160 309.284 1153.28 316 1145 316C1136.72 316 1130 309.284 1130 301C1130 292.716 1136.72 286 1145 286C1153.28 286 1160 292.716 1160 301Z" fill="#6D92CA"/>
<path fill-rule="evenodd" clip-rule="evenodd" d="M1145 305.286C1148.89 305.286 1150.32 302.367 1150.32 301C1150.32 299.633 1148.89 296.714 1145 296.714C1141.11 296.714 1139.68 299.633 1139.68 301C1139.68 302.367 1141.11 305.286 1145 305.286ZM1145 316C1153.28 316 1160 309.284 1160 301C1160 292.716 1153.28 286 1145 286C1136.72 286 1130 292.716 1130 301C1130 309.284 1136.72 316 1145 316Z" fill="black"/>
<path d="M973.742 422.169V401.81L966.941 404.286L963.694 405.287C962.292 405.719 960.853 406.019 959.396 406.182L958.586 406.272C957.311 406.415 956.024 406.408 954.75 406.252C953.048 406.043 951.389 405.57 949.833 404.849L948.849 404.393C947.32 403.685 945.927 402.714 944.733 401.526C943.913 400.709 943.195 399.797 942.593 398.809L941.987 397.813C940.877 395.992 940.015 394.031 939.422 391.982L939.314 391.606C938.921 390.248 938.635 388.861 938.46 387.459L938 383.788V380.262C938 378.856 938.14 377.454 938.419 376.077C938.622 375.074 938.897 374.088 939.243 373.126L939.882 371.346C940.458 369.743 941.245 368.225 942.223 366.83C943.356 365.214 944.733 363.783 946.304 362.588L946.525 362.42C947.208 361.901 947.929 361.435 948.682 361.025L948.731 360.999C950.627 359.969 952.706 359.319 954.851 359.086C956.058 358.955 957.276 358.957 958.482 359.092L959.321 359.186C960.828 359.354 962.316 359.664 963.766 360.111L963.899 360.152C965.919 360.775 967.855 361.645 969.662 362.741L973.742 365.217V330H1012.09L1009.63 334.54L1009.49 334.802C1008.43 336.727 1007.65 338.791 1007.16 340.933L1006.95 341.905C1006.71 342.953 1006.59 344.023 1006.59 345.097C1006.59 346.579 1006.82 348.052 1007.26 349.466L1007.3 349.576C1007.69 350.827 1008.25 352.022 1008.95 353.131L1009.22 353.564C1010.07 354.908 1011.08 356.141 1012.23 357.236L1012.27 357.273C1013.4 358.347 1014.65 359.282 1016 360.059L1016.84 360.544C1018.11 361.273 1019.43 361.895 1020.81 362.402L1020.94 362.452C1022.94 363.192 1025.03 363.671 1027.15 363.878L1027.48 363.91C1028.89 364.047 1030.31 364.046 1031.71 363.905C1033.95 363.68 1036.15 363.105 1038.21 362.199L1039.69 361.55C1040.39 361.244 1041.06 360.885 1041.71 360.477L1041.77 360.436C1043.38 359.414 1044.78 358.089 1045.89 356.533C1047.17 354.733 1048.02 352.669 1048.4 350.493L1048.57 349.49C1048.75 348.421 1048.84 347.338 1048.84 346.254V344.664C1048.84 342.962 1048.68 341.265 1048.36 339.594C1048.01 337.788 1047.47 336.024 1046.76 334.328L1046.38 333.439L1044.94 330H1080.97V362.19L1085.39 359.947C1086.78 359.243 1088.23 358.658 1089.71 358.197L1090.92 357.824C1092.76 357.253 1094.68 356.963 1096.62 356.963H1096.8C1098.49 356.963 1100.17 357.201 1101.79 357.671C1104.56 358.471 1107.09 359.924 1109.18 361.908L1109.35 362.074C1111.15 363.786 1112.6 365.835 1113.61 368.104L1114.19 369.412C1114.9 371.013 1115.45 372.682 1115.83 374.393L1115.91 374.728C1116.63 377.992 1116.78 381.357 1116.36 384.675L1116.34 384.876C1116.1 386.714 1115.68 388.523 1115.08 390.275L1114.64 391.567C1113.9 393.702 1112.8 395.691 1111.38 397.446L1111.21 397.661C1109.87 399.313 1108.25 400.712 1106.42 401.794L1106.29 401.868C1104.66 402.831 1102.88 403.514 1101.03 403.89C1098.4 404.421 1095.68 404.322 1093.1 403.6L1092.11 403.323C1088.46 402.317 1084.93 400.905 1081.59 399.114L1080.97 398.783V434H1042.91L1044.94 428.085L1046.33 422.276C1046.65 420.926 1046.82 419.542 1046.82 418.153V417.947C1046.82 414.86 1045.97 411.831 1044.38 409.188C1043.41 407.582 1042.18 406.148 1040.73 404.945L1040.63 404.86C1038.24 402.862 1035.36 401.53 1032.29 400.999L1029.74 400.558C1028.2 400.292 1026.64 400.159 1025.08 400.159H1023.45C1020.82 400.159 1018.22 400.692 1015.81 401.726L1014.87 402.13C1013.04 402.917 1011.38 404.074 1010.02 405.53C1008.25 407.417 1007.02 409.745 1006.45 412.271L1006.28 413.016C1006.01 414.254 1005.87 415.518 1005.87 416.787V418.366C1005.87 420.892 1006.17 423.41 1006.77 425.864L1007.31 428.085L1010.35 434H973.742V422.169Z" stroke="black" stroke-width="10"/>
<path d="M720.5 102.5H742L752.5 116V125L742 139.5H717.5L708 125V116L720.5 102.5Z" fill="#BFA4DE"/>
<ellipse cx="294" cy="431.5" rx="25" ry="24.5" fill="#BFA4DE"/>
<path d="M109.5 290C109.5 290.639 109.351 290.806 109.338 290.821L109.337 290.822C109.31 290.854 109.141 291.031 108.503 291.164C107.094 291.458 104.755 291.284 101.254 290.74C99.8805 290.526 98.3729 290.263 96.7511 289.98C90.4938 288.888 82.5371 287.5 74 287.5C65.4629 287.5 57.5062 288.888 51.2489 289.98C49.6271 290.263 48.1195 290.526 46.7456 290.74C43.245 291.284 40.9063 291.458 39.4969 291.164C38.8593 291.031 38.6903 290.854 38.6628 290.822C38.6626 290.822 38.6624 290.822 38.6621 290.821C38.6487 290.806 38.5 290.639 38.5 290C38.5 288.724 39.1353 287.18 40.7862 285.467C42.4303 283.761 44.9243 282.064 48.1792 280.559C54.6796 277.553 63.8129 275.5 74 275.5C84.1871 275.5 93.3204 277.553 99.8208 280.559C103.076 282.064 105.57 283.761 107.214 285.467C108.865 287.18 109.5 288.724 109.5 290Z" fill="#BFA4DE" stroke="black" stroke-width="5"/>
<ellipse cx="1144.5" cy="301" rx="6.5" ry="6" fill="#BFA4DE"/>
<path d="M382.5 194C382.5 200.438 377.49 205.5 371.5 205.5C365.51 205.5 360.5 200.438 360.5 194C360.5 187.562 365.51 182.5 371.5 182.5C377.49 182.5 382.5 187.562 382.5 194Z" fill="#BFA4DE" stroke="black" stroke-width="5"/>
<path d="M515.5 18C515.5 23.8923 510.931 28.5 505.5 28.5C500.069 28.5 495.5 23.8923 495.5 18C495.5 12.1077 500.069 7.5 505.5 7.5C510.931 7.5 515.5 12.1077 515.5 18Z" fill="#BFA4DE" stroke="black" stroke-width="5"/>
<path d="M237.5 14C237.5 20.529 232.628 25.5 227 25.5C221.372 25.5 216.5 20.529 216.5 14C216.5 7.47102 221.372 2.5 227 2.5C232.628 2.5 237.5 7.47102 237.5 14Z" fill="#BFA4DE" stroke="black" stroke-width="5"/>
<path d="M101.5 194C101.5 200.529 96.6277 205.5 91 205.5C85.3723 205.5 80.5 200.529 80.5 194C80.5 187.471 85.3723 182.5 91 182.5C96.6277 182.5 101.5 187.471 101.5 194Z" fill="#BFA4DE" stroke="black" stroke-width="5"/>
<rect x="947" y="140" width="111" height="109" fill="#BFA4DE" stroke="black" stroke-width="10"/>
<rect x="549" y="534" width="15" height="15" fill="#BFA4DE"/>
<path d="M890 188.5L891.709 187.171C893.538 185.748 895.706 184.828 898 184.5V184.5L900.682 184.165C901.557 184.055 902.414 183.834 903.233 183.507V183.507C904.074 183.17 904.867 182.725 905.591 182.181L906.5 181.5L907.919 180.649C908.626 180.224 909.436 180 910.261 180V180C910.751 180 911.237 179.921 911.701 179.766L914 179L916 178" stroke="black" stroke-width="5"/>
<path d="M957.5 154.5H1041.5V236.5" stroke="black" stroke-width="10"/>
<path d="M483 222V128L581.5 222H483Z" fill="#BFA4DE" stroke="black" stroke-width="10"/>
<path d="M797 73.6549H822.421L833.459 123L864.9 41H894" stroke="black" stroke-width="10"/>
<path d="M882.305 89.125H882.695L889.844 71H900.273L888.516 97.8359V98.2266L901.523 126H891.055L882.695 106.547H882.305L873.945 126H863.477L876.484 98.2266V97.8359L864.727 71H875.156L882.305 89.125Z" fill="black"/>
<path d="M37 487H359.5V561.5H427V632H577H699.5V537.5H959.5V464H1138" stroke="black" stroke-width="13"/>
<path d="M269 156H193V350H217.274" stroke="black" stroke-width="8.01141"/>
<rect x="155.081" y="154.081" width="12.8374" height="196.837" fill="#BFA4DE" stroke="black" stroke-width="6.16263"/>
<path d="M653.5 195C653.5 200.799 648.799 205.5 643 205.5C637.201 205.5 632.5 200.799 632.5 195C632.5 189.201 637.201 184.5 643 184.5C648.799 184.5 653.5 189.201 653.5 195Z" fill="#BFA4DE" stroke="black" stroke-width="5"/>
</svg>
